<?xml version="1.0" encoding="utf-8"?>
<!-- Generator: Adobe Illustrator 16.0.0, SVG Export Plug-In . SVG Version: 6.00 Build 0)  -->
<!DOCTYPE svg PUBLIC "-//W3C//DTD SVG 1.1//EN" "http://www.w3.org/Graphics/SVG/1.1/DTD/svg11.dtd">
<svg version="1.1" id="Layer_1" xmlns="http://www.w3.org/2000/svg" xmlns:xlink="http://www.w3.org/1999/xlink" x="0px" y="0px"
	 width="242.988px" height="215.989px" viewBox="0 0 242.988 215.989" enable-background="new 0 0 242.988 215.989"
	 xml:space="preserve">
<path fill="none" stroke="#252525" stroke-width="2" stroke-linecap="round" stroke-linejoin="round" stroke-miterlimit="10" d="
	M139.769,81.965c-0.492,0.633-1.037,0.85-1.924,0.762c-2.392-0.236-4.806-0.338-7.191-0.573c-4.145-0.407-8.244,0.159-12.364,0.164
	c-4.163,0.006-8.326,0.087-12.481-0.336c-2.472-0.252-4.961-0.301-7.438-0.505c-3.675-0.303-7.359-0.429-11.038-0.639
	c-3.68-0.21-7.355-0.444-11.042-0.585c-2.04-0.078-4.079-0.167-6.121-0.22c-4.557-0.12-8.978,0.625-13.318,1.937
	c-1.884,0.569-3.818,0.863-5.765,1.048c-0.623,0.059-1.296-0.151-1.912-0.347c-0.799-0.253-0.729-0.858-0.356-1.419
	c0.725-1.095,1.675-2.004,2.64-2.876c3.048-2.751,5.598-5.943,8.146-9.133c3.421-4.28,6.765-8.628,10.696-12.463
	c1.844-1.797,3.833-3.444,5.505-5.415c0.424-0.5,0.85-1.009,1.19-1.565c0.375-0.611,0.738-1.267,0.232-2.179
	c2.708,0.29,5.135-0.537,7.569-1.101c4.89-1.132,9.832-1.205,14.769-0.968c2.637,0.127,5.299-0.056,7.925,0.404
	c0.955,0.168,1.878-0.03,2.698-0.589"/>
<path fill="none" stroke="#252525" stroke-width="2" stroke-linecap="round" stroke-linejoin="round" stroke-miterlimit="10" d="
	M36.929,173.286c0.308,3.996,0.239,7.994,0.153,12c-0.077,3.582-0.944,7.035-1.353,10.561c-0.216,1.875-0.538,3.729-0.149,5.646
	c0.343,1.688,1.479,2.742,3.388,2.75c3.12,0.012,6.24-0.011,9.36,0.01c1.72,0.01,3.452,0.218,5.156,0.072
	c1.684-0.142,3.361-0.171,5.043-0.203c0.804-0.018,1.405-0.705,2.435-0.332c0.816,0.295,1.383,0.57,1.766,1.297"/>
<path fill="none" stroke="#252525" stroke-width="2" stroke-linecap="round" stroke-linejoin="round" stroke-miterlimit="10" d="
	M136.049,129.726c3.413-1.239,6.831-0.882,10.328-0.286c3.608,0.613,7.243,1.143,10.911,1.383c2.325,0.152,4.665,0.327,6.956,0.729
	c5.44,0.957,10.882,0.25,16.324,0.267c3.275,0.011,6.559,0.164,9.841,0.199c1.562,0.017,3.119,0.214,4.68,0.218
	c6.457,0.016,12.863,0.979,19.32,0.982c1.439,0,2.879,0.166,4.32,0.223c1.346,0.053,1.987-0.751,2.159-2.635
	c0.098-1.079-0.03-2.182,0.061-3.234c0.124-1.445,0.035-2.896,0.222-4.318c0.123-0.938-0.239-1.857,0.078-2.767"/>
<path fill="none" stroke="#252525" stroke-width="2" stroke-linecap="round" stroke-linejoin="round" stroke-miterlimit="10" d="
	M143.419,164.577c4.67-0.291,9.67-1.291,14.67-0.291c3,1,6,3,9,3c16,1,32,5,48,6c0-5-1-11,1.12-15.601"/>
<path fill="none" stroke="#252525" stroke-width="2" stroke-linecap="round" stroke-linejoin="round" stroke-miterlimit="10" d="
	M173.129,117.366c0.606,0.606,1.322,0.598,2.155,0.658c2.281,0.166,4.585-0.24,6.847,0.291c0.305,0.07,0.639,0.012,0.958,0.01
	c4.295-0.021,8.562,0.447,12.841,0.717c1.599,0.102,3.199,0.172,4.8,0.242c5.879,0.26,11.763,0.397,17.637,0.67
	c4.641,0.217,9.272,0.588,13.924,0.532c1.332-0.017,1.441-0.19,1.7-1.558c0.242-1.276,0.444-2.646,1.899-3.243"/>
<path fill="none" stroke="#252525" stroke-width="2" stroke-linecap="round" stroke-linejoin="round" stroke-miterlimit="10" d="
	M54.449,66.005c0.233,0.391,0.101,0.741-0.12,1.08c-3.292,5.064-6.673,10.018-10.854,14.462c-4.11,4.368-8.479,8.509-12.29,13.151
	c-3.014,3.67-6.552,6.812-9.857,10.186c-0.436,0.445-0.879,0.881-1.319,1.321"/>
<path fill="none" stroke="#252525" stroke-width="2" stroke-linecap="round" stroke-linejoin="round" stroke-miterlimit="10" d="
	M159.809,165.004c-0.547,0.533-0.604,1.193-0.612,1.92c-0.054,4.002,0.002,8.012-0.262,11.998
	c-0.41,6.199-0.582,12.396-0.585,18.604c0,0.915,0.563,1.7,0.423,2.646c-0.035,0.242,0.493,0.455,0.915,0.488
	c1.018,0.075,1.34,0.53,1.203,1.545c-0.05,0.358-0.082,0.719-0.122,1.08"/>
<path fill="none" stroke="#252525" stroke-width="2" stroke-linecap="round" stroke-linejoin="round" stroke-miterlimit="10" d="
	M119.969,57.125c0-0.36-0.072-0.738,0.014-1.077c0.41-1.616,0.389-1.698-1.094-2.522c-0.155-0.087-0.384-0.118-0.47-0.248
	c-1.894-2.849-4.466-5.074-7.019-7.257c-1.263-1.08-2.318-2.331-3.541-3.428c-1.326-1.189-2.646-2.402-3.836-3.722
	c-3.122-3.457-6.008-7.104-8.54-11.024c-0.607-0.941-1.202-1.907-1.936-2.746c-0.797-0.913-1.395-0.796-2.268,0.095
	c-1.088,1.111-2.178,2.231-3.364,3.234c-2.444,2.068-4.19,4.709-6.107,7.214c-2.972,3.881-6.096,7.624-9.46,11.179
	c-3.971,4.195-7.893,8.439-11.681,12.804c-0.343,0.396-0.159,0.732-0.221,1.097"/>
<path fill="none" stroke="#252525" stroke-width="2" stroke-linecap="round" stroke-linejoin="round" stroke-miterlimit="10" d="
	M37.77,73.805c-6.04,5.28-12.035,10.613-18.14,15.818c-3.042,2.593-6.418,4.755-9.809,6.882c-1.519,0.953-3.09,1.936-3.846,3.703
	c-0.353,0.823-0.42,1.687,0,2.514c0.282,0.558,0.318,1.105,0.113,1.684"/>
<path fill="none" stroke="#252525" stroke-width="2" stroke-linecap="round" stroke-linejoin="round" stroke-miterlimit="10" d="
	M95.129,18.605c2.915,2.403,4.764,5.636,6.701,8.772c3.46,5.602,7.727,10.5,12.627,14.859c2.191,1.948,4.085,4.164,5.982,6.378
	c1.295,1.513,2.444,3.15,3.752,4.652c0.551,0.632,1.35,1.044,2.016,1.582c0.987,0.797,1.656,1.745,1.46,3.119
	c-0.038,0.263,0.144,0.557,0.224,0.837"/>
<path fill="none" stroke="#252525" stroke-width="2" stroke-linecap="round" stroke-linejoin="round" stroke-miterlimit="10" d="
	M126.45,66.485c2.438,0.705,3.812,2.684,5.412,4.428c2.955,3.218,5.285,6.925,8.141,10.218c1.281,1.479,2.586,2.942,3.886,4.4
	c1.94,2.178,3.403,4.672,5.13,6.988c0.917,1.231,1.821,2.494,2.896,3.581c1.174,1.189,2.134,2.568,3.425,3.661
	c0.471,0.396,0.916,0.704,1.469,0.931c0.802,0.328,1.739,0.486,1.825,1.671c0.038,0.526,0.648,0.55,1.057,0.725
	c1.427,0.614,1.583,1.484,0.48,2.638"/>
<path fill="none" stroke="#252525" stroke-width="2" stroke-linecap="round" stroke-linejoin="round" stroke-miterlimit="10" d="
	M35.189,159.004c0.164,0.293,0.229,0.675,0.659,0.722c-0.278,0.747-0.742,1.485-0.119,2.278c0.035,0.045,0.122,0.096,0.112,0.119
	c-0.609,1.772,0.877,3.342,0.426,5.176c-0.337,1.367-0.188,2.867-0.166,4.306c0.023,1.522,0.575,1.88,1.898,1.187
	c1.686-0.885,3.324-1.826,5.162-2.404c2.539-0.799,5.088-0.926,7.686-0.456c0.617,0.112,1.182,0.12,1.81-0.099
	c0.939-0.328,1.692-0.217,1.766,1.295c0.073,1.515,0.05,3.051-0.119,4.557c-0.24,2.131-0.113,4.257,0.062,6.359
	c0.32,3.826,0.778,7.647,1.644,11.402c0.664,2.885,1.484,5.707,3.237,8.161c0.408,0.572,0.795,1.161,0.722,1.919"/>
<path fill="none" stroke="#252525" stroke-width="2" stroke-linecap="round" stroke-linejoin="round" stroke-miterlimit="10" d="
	M162.33,131.405c-0.032,3.5-0.328,6.979-0.845,10.439c-0.571,3.824-0.88,7.633-0.531,11.525c0.306,3.416,0.144,6.875,0.165,10.314
	c0.002,0.318-0.149,0.641-0.229,0.96"/>
<path fill="none" stroke="#252525" stroke-width="2" stroke-linecap="round" stroke-linejoin="round" stroke-miterlimit="10" d="
	M196.049,49.325c-0.564-0.292-1.164-0.369-1.8-0.368c-9.359,0.011-18.72,0.008-28.08,0.008c-0.359,0-0.723,0.028-1.08-0.005
	c-1.554-0.144-2.171,0.39-2.155,1.925c0.009,0.884,0.725,0.916,1.316,0.947c2.118,0.113,4.239,0.253,6.358,0.237
	c4.608-0.035,9.198,0.407,13.8,0.506c0.282,0.006,0.561,0.15,0.841,0.23"/>
<path fill="none" stroke="#252525" stroke-width="2" stroke-linecap="round" stroke-linejoin="round" stroke-miterlimit="10" d="
	M176.849,111.245c-0.028,0.243,0.057,0.441,0.28,0.637c1.648-0.973,3.483-0.51,5.238-0.478c2.604,0.05,5.2,0.365,7.801,0.56
	c1.901,0.143,3.768,0.508,5.644,0.824c1.706,0.287,3.433,0.516,5.158,0.598c3.837,0.185,7.68,0.248,11.519,0.391
	c0.747,0.027,1.227-0.479,1.275-0.975c0.136-1.391,1.018-2.512,1.219-3.84c0.104-0.685,0.214-1.458-0.447-2.042
	c-0.54-0.477-0.885-1.04-1.142-1.774c-0.387-1.103-1.613-1.585-2.497-2.257c-1.976-1.501-3.823-3.144-5.729-4.722
	c-2.997-2.483-6.048-4.904-8.979-7.462c-1.749-1.525-3.312-3.26-4.713-5.128c-0.324-0.432-0.361-0.854-0.347-1.331"/>
<path fill="none" stroke="#252525" stroke-width="2" stroke-linecap="round" stroke-linejoin="round" stroke-miterlimit="10" d="
	M143.969,75.365c0.039,0.712,0.315,1.289,0.832,1.808c3.312,3.328,6.53,6.748,9.96,9.961c3.526,3.304,6.283,7.227,8.901,11.263
	c1.272,1.961,2.59,3.913,4.32,5.514c0.687,0.634,0.591,1.413,0.706,2.175"/>
<path fill="none" stroke="#252525" stroke-width="2" stroke-linecap="round" stroke-linejoin="round" stroke-miterlimit="10" d="
	M212.49,173.525c-0.64,1.243-0.638,2.634-0.818,3.963c-0.622,4.576-0.564,9.19-0.626,13.798c-0.038,2.918,0.57,5.728,1.32,8.521
	c0.3,1.114,0.655,2.228,0.81,3.364c0.095,0.693,0.452,0.594,0.874,0.596"/>
<path fill="none" stroke="#252525" stroke-width="2" stroke-linecap="round" stroke-linejoin="round" stroke-miterlimit="10" d="
	M91.049,18.125c-1.486,0.229-2.648,1.085-3.71,2.051c-2.112,1.923-4.251,3.831-6.231,5.886c-3.816,3.958-8.045,7.398-12.634,10.398
	c-0.731,0.479-1.309,1.111-2.022,1.586c-0.899,0.598-0.919,1.593-0.677,2.385c0.484,1.586,0.835,3.269,1.997,4.573"/>
<path fill="none" stroke="#252525" stroke-width="2" stroke-linecap="round" stroke-linejoin="round" stroke-miterlimit="10" d="
	M140.609,65.525c1.037,1.938,3.133,2.408,4.789,3.497c1.29,0.848,2.766,1.27,4.097,2.013c1.321,0.738,1.354,0.876,0.976,2.295
	c-0.333,1.249-1.165,2.278-1.377,3.589c-0.116,0.729-0.078,1.277,0.521,1.681c5.277,3.554,9.329,8.421,13.802,12.839
	c2.848,2.812,5.802,5.507,8.999,7.921c0.733,0.554,1.518,1.044,2.275,1.564c0.582,0.4,1.126,0.833,1.319,1.561"/>
<path fill="none" stroke="#252525" stroke-width="2" stroke-linecap="round" stroke-linejoin="round" stroke-miterlimit="10" d="
	M50.849,83.165c-0.026,0.619-0.33,1.111-0.722,1.559c-0.596,0.684-1.149,1.413-1.807,2.033c-4.845,4.581-9.111,9.696-13.538,14.662
	c-1.217,1.365-2.508,2.638-3.988,3.688c-1.455,1.033-1.97,2.405-1.91,4.099c0.02,0.531,0.062,1.071-0.232,1.562
	c-0.063,0.105-0.145,0.255-0.115,0.355c1.326,4.684,1.16,9.494,1.176,14.281c0.008,2.243,0.806,3.719,3.139,4.059
	c0.605,0.09,0.769,0.363,0.711,0.861c-0.283,2.461,0.303,4.877,0.391,7.319c0.077,2.124,0.374,4.239,0.575,6.36
	c0.159,1.681,0.32,3.359,0.479,5.039"/>
<path fill="none" stroke="#252525" stroke-width="2" stroke-linecap="round" stroke-linejoin="round" stroke-miterlimit="10" d="
	M93.569,18.965c-3.217,0.772-5.056,3.271-6.947,5.65c-2.917,3.667-5.801,7.351-9.239,10.564c-1.01,0.944-1.903,2.026-2.764,3.113
	c-2.169,2.74-4.57,5.269-7.125,7.634c-0.706,0.654-1.902,0.654-2.738,1.342c-2.431,2-5.104,3.662-7.798,5.278
	c-0.708,0.424-1.142,0.973-1.429,1.698"/>
<path fill="none" stroke="#252525" stroke-width="2" stroke-linecap="round" stroke-linejoin="round" stroke-miterlimit="10" d="
	M144.929,51.605c1.259,0.044,1.84,1.165,2.602,1.843c4.479,3.992,8.792,8.169,13.255,12.178c2.871,2.579,5.839,5.063,8.888,7.428
	c1.887,1.463,2.469,3.634,1.06,5.792c-0.097,0.148-0.155,0.322-0.243,0.507c0.559,1.897,2.421,2.017,3.845,2.723
	c2.111,1.047,4.42,1.177,6.716,1.326c3.239,0.21,6.479,0.431,9.722,0.592c1.957,0.097,3.92,0.127,5.879,0.119
	c1.448-0.006,2.183-0.612,2.637-2.029c0.339-1.056,0.895-2.048,0.752-3.242c-0.058-0.489-0.2-0.996-0.522-1.167
	c-1.945-1.029-3.084-2.941-4.779-4.236c-1.743-1.33-3.469-2.685-5.161-4.079c-5.712-4.702-11.542-9.28-16.317-15
	c-0.472-0.564-1.125-1.051-1.087-1.915"/>
<path fill="none" stroke="#252525" stroke-width="2" stroke-linecap="round" stroke-linejoin="round" stroke-miterlimit="10" d="
	M171.089,24.485c0.1,0.374-0.248,0.557-0.39,0.908c0.317,0.582,0.908,0.878,1.453,1.274c1.263,0.917,2.548,1.816,3.619,2.976
	c6.132,6.633,13.146,12.23,20.526,17.388c0.562,0.392,1.069,0.742,1.19,1.455"/>
<path fill="none" stroke="#252525" stroke-width="2" stroke-linecap="round" stroke-linejoin="round" stroke-miterlimit="10" d="
	M98.369,16.205c3.751,1.712,7.834,2.263,11.767,3.337c2.085,0.57,4.312,0.685,6.329,1.412c1.643,0.592,3.31,0.55,4.949,0.867
	c4.367,0.843,8.77,1.491,13.196,1.943c3.599,0.367,7.21,0.643,10.797,1.104c3.474,0.447,6.969,0.639,10.443,1.049
	c0.513,0.06,1.039,0.008,1.56,0.008c3.521,0,7.04-0.001,10.56,0c0.938,0,1.883,0.081,2.761-0.36"/>
<path fill="none" stroke="#252525" stroke-width="2" stroke-linecap="round" stroke-linejoin="round" stroke-miterlimit="10" d="
	M48.209,64.805c-0.442,0.557-0.219,1.063,0.235,1.574c-2.119,0.917-2.947,2.99-4.414,4.447c-1.284,1.275-1.918,3.2-3.859,3.825
	c-0.096,0.031-0.203,0.14-0.235,0.236c-1.021,2.912-3.554,4.542-5.678,6.443c-5.317,4.759-10.774,9.364-15.56,14.682
	c-1.14,1.268-2.141,2.656-3.26,3.943c-0.646,0.743-0.745,1.674-1.069,2.529"/>
<path fill="none" stroke="#252525" stroke-width="2" stroke-linecap="round" stroke-linejoin="round" stroke-miterlimit="10" d="
	M198.33,77.165c-0.747,0.648-1.642,0.489-2.521,0.486c-4-0.013-8-0.041-12,0.004c-4.068,0.045-8.114-0.014-12-1.45"/>
<path fill="none" stroke="#252525" stroke-width="2" stroke-linecap="round" stroke-linejoin="round" stroke-miterlimit="10" d="
	M118.29,21.845c0.003,0.436,0.044,0.808,0.341,1.214c1.806,2.476,3.101,5.282,5.038,7.683c0.843,1.043,1.699,2.059,2.665,2.979
	c3.979,3.789,7.448,8.003,10.394,12.631c0.445,0.703,0.984,1.46,1.138,2.37c0.129,0.776,0.556,1.1,1.434,0.876
	c0.549-0.14,1.306-0.246,1.349,0.805c0.013,0.329,0.413,0.671,0.688,0.957c4.672,4.826,9.53,9.445,14.733,13.711
	c2.645,2.168,5.055,4.621,7.589,6.926c0.377,0.343,0.566,0.751,0.713,1.208"/>
<path fill="none" stroke="#252525" stroke-width="2" stroke-linecap="round" stroke-linejoin="round" stroke-miterlimit="10" d="
	M216.929,133.686c-0.339,4.836-0.427,9.686-0.789,14.523c-0.108,1.445-0.649,3.02,0.297,4.443c0.092,0.139,0.098,0.465-0.001,0.581
	c-1.026,1.195-0.76,2.451-0.228,3.729"/>
<path fill="none" stroke="#252525" stroke-width="2" stroke-linecap="round" stroke-linejoin="round" stroke-miterlimit="10" d="
	M54.689,129.726c0.015,1.01-0.562,1.839-0.836,2.761c-0.805,2.709-1.341,5.465-1.73,8.271c-0.409,2.957-0.433,5.937-0.812,8.885
	c-0.143,1.1,0.443,1.884,0.858,2.764"/>
<path fill="none" stroke="#252525" stroke-width="2" stroke-linecap="round" stroke-linejoin="round" stroke-miterlimit="10" d="
	M94.29,26.285c-1.306,0.495-1.846,1.707-2.508,2.768c-1.559,2.496-2.945,5.105-4.598,7.535c-2.468,3.626-5.593,6.7-8.759,9.713
	c-0.396,0.377-0.652,0.743-0.816,1.225"/>
<path fill="none" stroke="#252525" stroke-width="2" stroke-linecap="round" stroke-linejoin="round" stroke-miterlimit="10" d="
	M200.25,80.165c1.661,0.708,3.426,0.695,5.157,0.566c1.366-0.102,2.723-0.052,4.083-0.071c0.667-0.009,1.088,0.221,1.385,1.041
	c0.402,1.111,1.53,1.844,2.479,2.509c3.085,2.161,5.281,5.12,7.691,7.923c2.66,3.094,5.73,5.806,8.969,8.307
	c0.548,0.422,1.198,0.045,1.796,0.125"/>
<path fill="none" stroke="#252525" stroke-width="2" stroke-linecap="round" stroke-linejoin="round" stroke-miterlimit="10" d="
	M159.689,45.365c-0.782,0.461-1.627,0.491-2.521,0.499c-4.16,0.038-8.321,0.247-12.479,0.178c-2.199-0.036-4.402,0.073-6.602-0.08
	c-0.389-0.027-0.744,0.057-1.08,0.243"/>
<path fill="none" stroke="#252525" stroke-width="2" stroke-linecap="round" stroke-linejoin="round" stroke-miterlimit="10" d="
	M64.649,129.485c-1.282-1.34-2.82-0.771-4.321-0.609c-1.393,0.148-2.814,0.508-4.188,0.097c-0.792-0.237-0.945,0.493-1.456,0.633
	c-0.554-0.323-1.162-0.368-1.794-0.364c-3.16,0.012-6.321-0.053-9.479,0.025c-2.002,0.05-4.004,0.266-5.999,0.477
	c-0.811,0.088-1.594,0.123-2.405,0.002c-0.464-0.068-0.972-0.115-1.437,0.102"/>
<path fill="none" stroke="#252525" stroke-width="2" stroke-linecap="round" stroke-linejoin="round" stroke-miterlimit="10" d="
	M172.649,87.485c1.302,0.182,1.781,1.34,2.51,2.169c2.752,3.134,5.772,5.983,8.863,8.78c2.531,2.293,5.515,4.125,7.725,6.66
	c1.529,1.756,3.188,1.354,4.785,1.409c5.039,0.177,10.083-0.097,15.118-0.413c0.64-0.041,1.29,0.09,1.92-0.125"/>
<path fill="none" stroke="#252525" stroke-width="2" stroke-linecap="round" stroke-linejoin="round" stroke-miterlimit="10" d="
	M143.849,24.965c-0.268,1.254,0.375,2.269,0.979,3.229c1.551,2.469,3.604,4.533,5.631,6.602c2.713,2.77,5.597,5.392,7.995,8.438
	c1.41,1.79,3.168,3.312,4.246,5.366c0.125,0.239,0.39,0.406,0.59,0.605"/>
<path fill="none" stroke="#252525" stroke-width="2" stroke-linecap="round" stroke-linejoin="round" stroke-miterlimit="10" d="
	M166.169,80.045c0.025,0.466-0.165,0.904,0.342,1.342c1.496,1.292,2.795,2.811,3.696,4.56c0.55,1.065,2.338,0.6,2.321,2.138
	c-0.015,1.37,1.197,2.009,1.833,2.979c0.694,1.057,1.566,2.004,2.478,2.912c3.087,3.078,6.154,6.17,9.458,9.027
	c0.876,0.758,1.795,1.508,2.518,2.543c0.776,1.117,2.306,1.071,3.636,0.539"/>
<path fill="none" stroke="#252525" stroke-width="2" stroke-linecap="round" stroke-linejoin="round" stroke-miterlimit="10" d="
	M158.25,46.085c-0.08,0.96-0.121,1.926-0.251,2.879c-0.137,1.006-0.836,1.379-1.789,1.447c-2.058,0.146-4.083-0.186-6.123-0.313
	c-2.44-0.152-4.87-0.508-7.316-0.512c-0.714-0.001-1.513-0.509-2.16,0.22"/>
<path fill="none" stroke="#252525" stroke-width="2" stroke-linecap="round" stroke-linejoin="round" stroke-miterlimit="10" d="
	M134.609,67.685c0.561,0.304,1.058,0.591,1.477,1.174c1.312,1.826,3.257,2.984,5.006,4.343c0.228,0.177,0.489,0.308,0.717,0.485
	c1.027,0.804,1.917,1.666,3.488,1.514c1.062-0.103,2.166,0.638,3.218,1.044c3.117,1.205,6.383,1.791,9.623,2.445
	c2.566,0.519,5.169,0.907,7.788,1.155c0.693,0.066,0.968-0.117,1.204-0.641c0.57-1.262,0.908-2.597,1.062-3.962
	c0.101-0.894-0.436-1.201-1.536-1.464c-1.405-0.335-2.806-0.147-4.206-0.227c-2.46-0.141-4.89-0.545-7.322-0.934
	c-1.39-0.222-2.768-0.604-4.197-0.494"/>
<path fill="none" stroke="#252525" stroke-width="2" stroke-linecap="round" stroke-linejoin="round" stroke-miterlimit="10" d="
	M62.849,170.405c-1.504-0.018-2.966-0.354-4.442-0.586c-1.363-0.214-2.748-0.357-4.078,0.227"/>
<path fill="none" stroke="#252525" stroke-width="2" stroke-linecap="round" stroke-linejoin="round" stroke-miterlimit="10" d="
	M204.45,66.605c3.286,2.404,6.632,4.719,10.328,6.461c0.473,0.222,0.847,0.513,1.186,0.865c0.614,0.638,0.478,1.023-0.348,1.447
	c-0.585,0.301-1.225,0.293-1.808,0.314c-2.796,0.102-5.51,0.786-8.277,1.062c-1.521,0.152-3.044-0.087-4.565,0.145
	c-0.598,0.091-1.113,0.222-1.556,0.625"/>
<path fill="none" stroke="#252525" stroke-width="2" stroke-linecap="round" stroke-linejoin="round" stroke-miterlimit="10" d="
	M137.969,49.325c-0.503,0.189-1.019,0.25-1.56,0.248c-3.521-0.016-7.04-0.014-10.561-0.004c-0.881,0.002-1.745-0.223-2.646-0.036
	c-0.394,0.082-0.582,0.3-0.834,0.512"/>
<path fill="none" stroke="#252525" stroke-width="2" stroke-linecap="round" stroke-linejoin="round" stroke-miterlimit="10" d="
	M14.369,107.525c0.2,0.52,0.326,1.085,0.614,1.552c0.953,1.543,2.312,2.459,4.184,2.152c3.083-0.505,6.157-0.454,9.242-0.104"/>
<path fill="none" stroke="#252525" stroke-width="2" stroke-linecap="round" stroke-linejoin="round" stroke-miterlimit="10" d="
	M165.809,116.165c0.04,2.521,0.229,5.049,0.079,7.559c-0.154,2.588-0.498,5.181-1.279,7.684"/>
<path fill="none" stroke="#252525" stroke-width="2" stroke-linecap="round" stroke-linejoin="round" stroke-miterlimit="10" d="
	M206.429,197.525c0.08,0.767-0.432,1.271-1.021,1.271c-0.773,0.002-1.26,0.342-1.806,0.763c-1.359,1.046-2.29,2.511-3.595,3.606
	c-0.195,0.164-0.382,0.353-0.603,0.477c-1.874,1.048-2.925,0.22-3.221-2.037c-0.11-0.844,0.07-1.727-0.377-2.52"/>
<path fill="none" stroke="#252525" stroke-width="2" stroke-linecap="round" stroke-linejoin="round" stroke-miterlimit="10" d="
	M226.769,113.525c-3.239-0.221-6.479-0.442-9.721-0.659c-1.039-0.068-2.08-0.121-3.119-0.181"/>
<path fill="none" stroke="#252525" stroke-width="2" stroke-linecap="round" stroke-linejoin="round" stroke-miterlimit="10" d="
	M63.81,113.286c-0.534,1.409-1.042,2.814-1.904,4.09c-2.062,3.049-3.972,6.192-5.653,9.472c-0.306,0.598-0.721,1.179-0.482,1.919"/>
<path fill="none" stroke="#252525" stroke-width="2" stroke-linecap="round" stroke-linejoin="round" stroke-miterlimit="10" d="
	M215.129,107.525c2.88,0.04,5.762,0.055,8.641,0.135c0.883,0.024,1.764,0.206,2.637,0.363c0.145,0.026,0.243,0.302,0.363,0.462"/>
<path fill="none" stroke="#252525" stroke-width="2" stroke-linecap="round" stroke-linejoin="round" stroke-miterlimit="10" d="
	M201.809,64.805c0.411-0.615,0.18-1.358-0.604-1.672c-2.351-0.943-4.004-2.604-4.888-4.939c-0.426-1.124-1.131-1.946-1.938-2.759
	c-0.315-0.318-0.649-0.608-0.887-1.05c-0.406-0.759-1.111-1.144-2.004-0.619"/>
<path fill="none" stroke="#252525" stroke-width="2" stroke-linecap="round" stroke-linejoin="round" stroke-miterlimit="10" d="
	M154.53,200.766c-0.262,0.855-0.625,1.513,0.271,2.48c0.734,0.789,0.13,2.269-0.421,3.264c-1.449,2.627-3.813,2.732-6.092,0.375"/>
<path fill="none" stroke="#252525" stroke-width="2" stroke-linecap="round" stroke-linejoin="round" stroke-miterlimit="10" d="
	M35.969,64.565c-0.795,2.963,0.596,5.476,1.693,8.034c0.438,1.017,1.1,1.901,2.147,2.406"/>
<path fill="none" stroke="#252525" stroke-width="2" stroke-linecap="round" stroke-linejoin="round" stroke-miterlimit="10" d="
	M240.209,114.485c-0.065,1.321-1.041,0.93-1.8,0.963c-1.155,0.051-1.234-0.71-1.194-1.582c-0.807,0-1.621-0.549-2.423,0.094
	c0.332,0.888,0.943,0.686,1.577,0.406"/>
<path fill="none" stroke="#252525" stroke-width="2" stroke-linecap="round" stroke-linejoin="round" stroke-miterlimit="10" d="
	M67.29,46.325c0.085,0.83-0.224,1.46-0.829,2.052c-1.868,1.829-3.86,3.513-5.913,5.121c-0.538,0.422-1.338,0.507-2.019,0.748"/>
<path fill="none" stroke="#252525" stroke-width="2" stroke-linecap="round" stroke-linejoin="round" stroke-miterlimit="10" d="
	M146.729,208.266c-0.923,0.188-1.684-0.174-2.13-0.918c-0.318-0.529-0.837-0.749-1.258-1.021c-0.78-0.506-1.492-1.062-2.131-1.724
	c-0.692-0.722-1.411-1.411-2.281-1.918"/>
<path fill="none" stroke="#252525" stroke-width="2" stroke-linecap="round" stroke-linejoin="round" stroke-miterlimit="10" d="
	M134.729,52.925c-2.14-0.446-4.316-0.368-6.479-0.474c-0.92-0.045-1.831,0.342-2.772-0.097c-0.429-0.2-0.948,0.067-1.308,0.451"/>
<path fill="none" stroke="#252525" stroke-width="2" stroke-linecap="round" stroke-linejoin="round" stroke-miterlimit="10" d="
	M188.609,105.604c-1.119,0.811-2.242,0.049-3.358-0.014c-0.964-0.053-1.934-0.166-2.877-0.367c-0.595-0.127-0.95,0.318-1.443,0.381"
	/>
<path fill="none" stroke="#252525" stroke-width="2" stroke-linecap="round" stroke-linejoin="round" stroke-miterlimit="10" d="
	M205.769,198.965c0.061,0.732,0.105,1.432-0.457,2.061c-0.214,0.237-0.261,0.667-0.284,1.059c-0.042,0.686,0.18,0.879,0.862,0.86
	c1.088-0.028,1.84-1.108,3.008-0.911c0.085,0.014,0.473-0.676,0.352-1.148"/>
<path fill="none" stroke="#252525" stroke-width="2" stroke-linecap="round" stroke-linejoin="round" stroke-miterlimit="10" d="
	M166.41,193.805c-0.062,1.16,0.117,2.328-0.121,3.48c-0.296,1.432,0.604,2.532,1.115,3.705c0.597,1.364,1.14,2.688,1.062,4.215
	c-0.03,0.619,0.075,1.278,0.944,1.319"/>
<path fill="none" stroke="#252525" stroke-width="2" stroke-linecap="round" stroke-linejoin="round" stroke-miterlimit="10" d="
	M191.669,198.245c-0.358,0.539-0.569,1.141-1.507,1.006c-0.706-0.103-1.281,0.523-1.795,1.033c-1.045,1.037-2.056,2.107-3.227,3.018
	c-0.494,0.384-0.989,0.509-1.571,0.465"/>
<path fill="none" stroke="#252525" stroke-width="2" stroke-linecap="round" stroke-linejoin="round" stroke-miterlimit="10" d="
	M197.009,194.165c-0.079,0.642-0.027,1.336-0.268,1.908c-0.504,1.211-0.618,2.518-1.954,3.455c-1.345,0.943-2.258,2.526-3.281,3.891
	c-0.514,0.684-1.099,1.06-1.937,1.066"/>
<path fill="none" stroke="#252525" stroke-width="2" stroke-linecap="round" stroke-linejoin="round" stroke-miterlimit="10" d="
	M237.929,106.565c-0.104-0.689-0.424-1.048-1.196-1.121c-0.43-0.04-0.8-0.423-1.125-0.891c-0.824-1.184-2.012-1.892-3.56-1.709"/>
<path fill="none" stroke="#252525" stroke-width="2" stroke-linecap="round" stroke-linejoin="round" stroke-miterlimit="10" d="
	M172.29,87.005c0.095-0.765-0.317-1.378-0.738-1.905c-1.019-1.279-1.958-2.595-2.617-4.096c-0.122-0.275-0.335-0.035-0.483-0.119"/>
<path fill="none" stroke="#252525" stroke-width="2" stroke-linecap="round" stroke-linejoin="round" stroke-miterlimit="10" d="
	M134.609,60.965c1.331,0.842,2.146,2.344,3.715,2.895c0.245,0.086,0.357,0.366,0.388,0.703c0.062,0.671,0.532,1.048,1.179,1.202"/>
<path fill="none" stroke="#252525" stroke-width="2" stroke-linecap="round" stroke-linejoin="round" stroke-miterlimit="10" d="
	M217.889,80.885c-1.95-0.323-3.929,0.05-5.882-0.235c-0.439-0.064-0.836,0.113-1.198,0.355"/>
<path fill="none" stroke="#252525" stroke-width="2" stroke-linecap="round" stroke-linejoin="round" stroke-miterlimit="10" d="
	M46.049,58.805c-0.209,1.575-1.38,2.286-2.644,2.872c-1.622,0.753-3.249,1.508-5.037,1.808"/>
<path fill="none" stroke="#252525" stroke-width="2" stroke-linecap="round" stroke-linejoin="round" stroke-miterlimit="10" d="
	M234.209,108.125c-0.949,0.25-1.837,0.383-2.777-0.212c-0.794-0.502-1.742,0.047-2.143,1.052"/>
<path fill="none" stroke="#252525" stroke-width="2" stroke-linecap="round" stroke-linejoin="round" stroke-miterlimit="10" d="
	M178.53,197.766c-0.384,1.738-0.448,3.508-0.48,5.279"/>
<path fill="none" stroke="#252525" stroke-width="2" stroke-linecap="round" stroke-linejoin="round" stroke-miterlimit="10" d="
	M51.449,164.405c-0.193,0.875,0.719,1.264,0.876,2.032c0.218,1.069,0.684,2.088,1.044,3.128"/>
<path fill="none" stroke="#252525" stroke-width="2" stroke-linecap="round" stroke-linejoin="round" stroke-miterlimit="10" d="
	M215.969,75.365c0.292,1.725,0.446,3.476,0.961,5.16"/>
<path fill="none" stroke="#252525" stroke-width="2" stroke-linecap="round" stroke-linejoin="round" stroke-miterlimit="10" d="
	M12.449,102.726c-0.715,0.922-0.265,2.135-0.816,3.133c-0.559,1.014-0.713,1.174-1.7,0.7c-0.419-0.2-0.804-0.474-1.203-0.714"/>
<path fill="none" stroke="#252525" stroke-width="2" stroke-linecap="round" stroke-linejoin="round" stroke-miterlimit="10" d="
	M240.089,105.845c0.427,0.896,0.719,1.818,1.654,2.439c0.706,0.468,0.431,1.375,0.266,2.121"/>
<path fill="none" stroke="#252525" stroke-width="2" stroke-linecap="round" stroke-linejoin="round" stroke-miterlimit="10" d="
	M190.889,199.445c0.127,0.876-0.194,1.622-0.728,2.274c-0.553,0.677-0.835,1.406-0.717,2.285c0.063,0.479-0.066,0.914-0.48,1.193
	c-0.338,0.229-0.203,0.553-0.235,0.846"/>
<path fill="none" stroke="#252525" stroke-width="2" stroke-linecap="round" stroke-linejoin="round" stroke-miterlimit="10" d="
	M53.369,53.765c-0.444,1.001-0.348,2.296-1.561,2.878c-0.242,0.116-0.409,0.445-0.718,0.354c-1.065-0.314-1.646,0.538-2.401,0.967"
	/>
<path fill="none" stroke="#252525" stroke-width="2" stroke-linecap="round" stroke-linejoin="round" stroke-miterlimit="10" d="
	M53.489,58.805c-0.71,2.568-2.602,4.064-4.8,5.28"/>
<path fill="none" stroke="#252525" stroke-width="2" stroke-linecap="round" stroke-linejoin="round" stroke-miterlimit="10" d="
	M162.809,50.765c-1.005-0.252-1.613-1.145-2.519-1.564c-0.652-0.303-1.275-0.687-2.042-0.596"/>
<path fill="none" stroke="#252525" stroke-width="2" stroke-linecap="round" stroke-linejoin="round" stroke-miterlimit="10" d="
	M51.33,159.844c0.017,0.811,0.277,1.631-0.232,2.406c-0.476,0.723,0.404,1.242,0.353,1.914"/>
<path fill="none" stroke="#252525" stroke-width="2" stroke-linecap="round" stroke-linejoin="round" stroke-miterlimit="10" d="
	M183.809,199.565c0.271,0.797,0.438,1.568-0.227,2.293c-0.138,0.15-0.149,0.473-0.124,0.706c0.09,0.784-0.038,1.513-0.495,2.157
	c-0.224,0.314-0.051,0.646-0.114,0.964"/>
<path fill="none" stroke="#252525" stroke-width="2" stroke-linecap="round" stroke-linejoin="round" stroke-miterlimit="10" d="
	M129.57,60.965c1.438,0.754,2.433,2.058,3.73,2.975c-0.594,1.261-0.521,1.722,0.348,2.426c0.524,0.426,1.021,0.636,1.44-0.121"/>
<path fill="none" stroke="#252525" stroke-width="2" stroke-linecap="round" stroke-linejoin="round" stroke-miterlimit="10" d="
	M167.969,113.766c-0.039,0.359-0.115,0.721-0.107,1.078c0.006,0.279-0.19,0.677,0.115,0.826c1.336,0.652,2.265,2.205,4.075,1.828
	c0.448-0.095,0.808-0.026,1.134-0.58c0.288-0.49,1.1-0.52,1.744-0.514"/>
<path fill="none" stroke="#252525" stroke-width="2" stroke-linecap="round" stroke-linejoin="round" stroke-miterlimit="10" d="
	M170.969,106.085c0.298,1.36,1.144,2.114,2.521,2.28"/>
<path fill="none" stroke="#252525" stroke-width="2" stroke-linecap="round" stroke-linejoin="round" stroke-miterlimit="10" d="
	M36.569,160.565c0.548,1.086,0.159,2.24,0.24,3.359"/>
<path fill="none" stroke="#252525" stroke-width="2" stroke-linecap="round" stroke-linejoin="round" stroke-miterlimit="10" d="
	M61.889,200.885c0,0.119-0.051,0.308,0.008,0.351c1.13,0.841,0.963,1.779,0.231,2.771"/>
<path fill="none" stroke="#252525" stroke-width="2" stroke-linecap="round" stroke-linejoin="round" stroke-miterlimit="10" d="
	M59.969,61.205c-0.755,0.229-1.319,0.668-1.822,1.302c-0.528,0.666-1.102,1.367-2.018,1.578"/>
<path fill="none" stroke="#252525" stroke-width="2" stroke-linecap="round" stroke-linejoin="round" stroke-miterlimit="10" d="
	M50.489,153.605c0.22,0.528,0.44,1.058,0.655,1.569c-0.247,0.494-0.512,1.021-0.775,1.551"/>
<path fill="none" stroke="#252525" stroke-width="2" stroke-linecap="round" stroke-linejoin="round" stroke-miterlimit="10" d="
	M180.45,200.885c1.212-0.266,2.018-1.455,3.359-1.477c0.124-0.002,0.239-0.523,0.359-0.804"/>
<path fill="none" stroke="#252525" stroke-width="2" stroke-linecap="round" stroke-linejoin="round" stroke-miterlimit="10" d="
	M138.689,49.805c0.435,1.419,0.117,2.626-1.021,3.6"/>
<path fill="none" stroke="#252525" stroke-width="2" stroke-linecap="round" stroke-linejoin="round" stroke-miterlimit="10" d="
	M35.969,153.605c0.08,1.04,0.16,2.08,0.24,3.12"/>
<path fill="none" stroke="#252525" stroke-width="2" stroke-linecap="round" stroke-linejoin="round" stroke-miterlimit="10" d="
	M37.29,63.725c-0.475,0.676-0.267,1.456-0.192,2.155c0.046,0.44,0.021,0.702-0.287,0.965"/>
<path fill="none" stroke="#252525" stroke-width="2" stroke-linecap="round" stroke-linejoin="round" stroke-miterlimit="10" d="
	M166.649,112.686c-0.775,0.729-0.022,1.613-0.243,2.398c-0.058,0.205-0.156,0.4-0.236,0.602"/>
<path fill="none" stroke="#252525" stroke-width="2" stroke-linecap="round" stroke-linejoin="round" stroke-miterlimit="10" d="
	M147.57,202.084c0.646,2.026,0.241,3.967-0.48,5.881"/>
<path fill="none" stroke="#252525" stroke-width="2" stroke-linecap="round" stroke-linejoin="round" stroke-miterlimit="10" d="
	M162.809,106.325c0.229,1.164,0.861,1.966,2.04,2.28"/>
<path fill="none" stroke="#252525" stroke-width="2" stroke-linecap="round" stroke-linejoin="round" stroke-miterlimit="10" d="
	M177.209,111.965c0.051,0.98-0.712,1.861-0.359,2.879"/>
<path fill="none" stroke="#252525" stroke-width="2" stroke-linecap="round" stroke-linejoin="round" stroke-miterlimit="10" d="
	M95.489,15.845c-0.965,0.559-0.608,1.473-0.58,2.279c0.007,0.185,0.292,0.371-0.14,0.361"/>
<path fill="none" stroke="#252525" stroke-width="2" stroke-linecap="round" stroke-linejoin="round" stroke-miterlimit="10" d="
	M178.169,102.245c0.354,0.947,0.942,1.885,0.12,2.88"/>
<path fill="none" stroke="#252525" stroke-width="2" stroke-linecap="round" stroke-linejoin="round" stroke-miterlimit="10" d="
	M163.169,110.405c0.93,0.252,1.717,0.949,2.762,0.854c0.15-0.014,0.402,0.105,0.466,0.234c0.397,0.822,1.254,1.006,1.934,1.432"/>
<path fill="none" stroke="#252525" stroke-width="2" stroke-linecap="round" stroke-linejoin="round" stroke-miterlimit="10" d="
	M168.929,114.004c0.396,0.795,0.841,1.582,0.479,2.521"/>
<path fill="none" stroke="#252525" stroke-width="2" stroke-linecap="round" stroke-linejoin="round" stroke-miterlimit="10" d="
	M213.209,203.646c-0.567,0.504-1.125,0.694-1.931,0.39c-1.233-0.469-1.834-0.018-2.39,1.53"/>
<path fill="none" stroke="#252525" stroke-width="2" stroke-linecap="round" stroke-linejoin="round" stroke-miterlimit="10" d="
	M35.369,149.405c0.745,0.637,0.397,1.504,0.48,2.28"/>
<path fill="none" stroke="#252525" stroke-width="2" stroke-linecap="round" stroke-linejoin="round" stroke-miterlimit="10" d="
	M122.849,61.445c1.61,0.491,2.899,1.564,4.319,2.4"/>
<path fill="none" stroke="#252525" stroke-width="2" stroke-linecap="round" stroke-linejoin="round" stroke-miterlimit="10" d="
	M175.649,113.525c0.108,0.956-0.476,1.046-1.199,0.96"/>
<path fill="none" stroke="#252525" stroke-width="2" stroke-linecap="round" stroke-linejoin="round" stroke-miterlimit="10" d="
	M241.41,111.125c0.02,1.402-0.089,2.813,0.239,4.199"/>
<path fill="none" stroke="#252525" stroke-width="2" stroke-linecap="round" stroke-linejoin="round" stroke-miterlimit="10" d="
	M238.049,114.605c0.619,0.376,1.302-0.248,1.92,0.12"/>
<path fill="none" stroke="#252525" stroke-width="2" stroke-linecap="round" stroke-linejoin="round" stroke-miterlimit="10" d="
	M155.849,100.565c-0.056,0.673,0.029,1.318,0.359,1.92"/>
<path fill="none" stroke="#252525" stroke-width="2" stroke-linecap="round" stroke-linejoin="round" stroke-miterlimit="10" d="
	M230.37,114.245c-0.53-1.277-0.951-1.509-2.399-1.32"/>
<path fill="none" stroke="#252525" stroke-width="2" stroke-linecap="round" stroke-linejoin="round" stroke-miterlimit="10" d="
	M134.009,64.565c-0.093,0.661-0.05,1.227,0.841,1.2"/>
<path fill="none" stroke="#252525" stroke-width="2" stroke-linecap="round" stroke-linejoin="round" stroke-miterlimit="10" d="
	M202.169,65.045c0.36,0.48,0.721,0.96,1.08,1.44"/>
<path fill="none" stroke="#252525" stroke-width="2" stroke-linecap="round" stroke-linejoin="round" stroke-miterlimit="10" d="
	M156.209,203.766c-0.014-0.631,0.146-1.458-0.96-0.842"/>
<path fill="none" stroke="#252525" stroke-width="2" stroke-linecap="round" stroke-linejoin="round" stroke-miterlimit="10" d="
	M158.609,105.125c1.372,0.214,1.828,1.252,2.16,2.4"/>
<path fill="none" stroke="#252525" stroke-width="2" stroke-linecap="round" stroke-linejoin="round" stroke-miterlimit="10" d="
	M242.49,113.525c-0.007,0.587,0.07,1.156,0.498,1.925c-1.012-0.054-1.874,0.366-2.778-0.125"/>
<path fill="none" stroke="#252525" stroke-width="2" stroke-linecap="round" stroke-linejoin="round" stroke-miterlimit="10" d="
	M198.689,48.305c-1.156,0.205-2.163,0.67-2.753,1.744c-0.561,1.018-1.674,0.901-2.526,1.316"/>
<path fill="none" stroke="#252525" stroke-width="2" stroke-linecap="round" stroke-linejoin="round" stroke-miterlimit="10" d="
	M125.849,63.485c-1.035,0.816,0.127,1.518,0.119,2.28"/>
<path fill="none" stroke="#252525" stroke-width="2" stroke-linecap="round" stroke-linejoin="round" stroke-miterlimit="10" d="
	M179.25,197.525c-0.752,0.017-1.477,0.154-2.16,0.479"/>
<path fill="none" stroke="#252525" stroke-width="2" stroke-linecap="round" stroke-linejoin="round" stroke-miterlimit="10" d="
	M64.29,115.206c-0.31,0.479-0.763,0.694-1.319,0.719"/>
<path fill="none" stroke="#252525" stroke-width="2" stroke-linecap="round" stroke-linejoin="round" stroke-miterlimit="10" d="
	M68.369,110.525c-0.976,0.119-1.84,0.509-2.38,1.332c-0.372,0.565-1.18,0.327-1.459,0.947"/>
<path fill="none" stroke="#252525" stroke-width="2" stroke-linecap="round" stroke-linejoin="round" stroke-miterlimit="10" d="
	M39.81,63.245c-0.095,0.438,0.222,0.949-0.24,1.32"/>
<path fill="none" stroke="#252525" stroke-width="2" stroke-linecap="round" stroke-linejoin="round" stroke-miterlimit="10" d="
	M165.209,111.366c-0.184,0.385-0.374,0.77-0.12,1.199"/>
<path fill="none" stroke="#252525" stroke-width="2" stroke-linecap="round" stroke-linejoin="round" stroke-miterlimit="10" d="
	M231.089,113.165c-0.399-0.189-0.8-0.189-1.199,0"/>
<path fill="none" stroke="#252525" stroke-width="2" stroke-linecap="round" stroke-linejoin="round" stroke-miterlimit="10" d="
	M38.129,63.605c0.628,0.757,0.027,1.446-0.12,2.16"/>
<path fill="none" stroke="#252525" stroke-width="2" stroke-linecap="round" stroke-linejoin="round" stroke-miterlimit="10" d="
	M135.57,66.725c-0.08,0.4-0.16,0.8-0.24,1.2"/>
<path fill="none" stroke="#252525" stroke-width="2" stroke-linecap="round" stroke-linejoin="round" stroke-miterlimit="10" d="
	M128.129,65.045c0.215,0.745,0.479,1.482,0.36,2.28"/>
<path fill="none" stroke="#252525" stroke-width="2" stroke-linecap="round" stroke-linejoin="round" stroke-miterlimit="10" d="
	M98.849,17.285c-1.015-0.417-2.081-0.147-3.12-0.24"/>
<path fill="none" stroke="#252525" stroke-width="2" stroke-linecap="round" stroke-linejoin="round" stroke-miterlimit="10" d="
	M242.25,112.084c0.254,0.293,0.057,0.645,0.12,0.961"/>
<path fill="none" stroke="#252525" stroke-width="2" stroke-linecap="round" stroke-linejoin="round" stroke-miterlimit="10" d="
	M186.689,66.005c-0.319-0.165-0.641-0.165-0.96,0"/>
<path fill="none" stroke="#252525" stroke-width="2" stroke-linecap="round" stroke-linejoin="round" stroke-miterlimit="10" d="
	M173.969,114.726c-0.085,0.853,0.649,0.673,1.086,0.827c0.358,0.126,0.377,0.076,0.715-0.469"/>
<path fill="none" stroke="#252525" stroke-width="2" stroke-linecap="round" stroke-linejoin="round" stroke-miterlimit="10" d="
	M51.81,54.725c0.319,0.04,0.64,0.08,0.96,0.12"/>
<path fill="none" stroke="#252525" stroke-width="2" stroke-linecap="round" stroke-linejoin="round" stroke-miterlimit="10" d="
	M92.369,18.245c-0.119,0.31-0.326,0.599-0.24,0.96"/>
<path fill="none" stroke="#252525" stroke-width="2" stroke-linecap="round" stroke-linejoin="round" stroke-miterlimit="10" d="
	M126.689,65.525c0.707,0.164,0.204,0.732,0.359,1.08"/>
<path fill="none" stroke="#252525" stroke-width="2" stroke-linecap="round" stroke-linejoin="round" stroke-miterlimit="10" d="
	M60.33,53.885c-0.04,0.28-0.08,0.56-0.12,0.84"/>
<path fill="none" stroke="#252525" stroke-width="2" stroke-linecap="round" stroke-linejoin="round" stroke-miterlimit="10" d="
	M11.849,104.045c-0.28,0.04-0.561,0.08-0.841,0.12"/>
<path fill="#252525" d="M52.422,203.954c0,0-13.322-58.82,2.563-94.045c9.104-23.288,43.388-25.578,54.771-16.624
	c24.042,18.913,24.819,30.604,24.667,111.334"/>
</svg>
