<?xml version="1.0" encoding="utf-8"?>
<!-- Generator: Adobe Illustrator 16.0.0, SVG Export Plug-In . SVG Version: 6.00 Build 0)  -->
<!DOCTYPE svg PUBLIC "-//W3C//DTD SVG 1.1//EN" "http://www.w3.org/Graphics/SVG/1.1/DTD/svg11.dtd">
<svg version="1.1" id="Layer_2" xmlns="http://www.w3.org/2000/svg" xmlns:xlink="http://www.w3.org/1999/xlink" x="0px" y="0px"
	 width="500px" height="500px" viewBox="0 0 250 230" enable-background="new 0 0 100 100"
	 xml:space="preserve">
<path fill="none" stroke="#00656A" stroke-width="2" stroke-linecap="round" stroke-linejoin="round" stroke-miterlimit="10" d="
	M6.16,104.828c0,0-9.833-1.833,32-30.667c0,0-6.16-3.982-2-9.167c4.496-5.604,19.739-12.69,31.333-19.833l-1.667-6.5
	c0,0,12.333-12.5,24.5-20.833c0,0-19.534,24.498-40.583,47.417c-21.491,23.4-44.38,45.24-31.75,46.25l10.75-0.75
	c0,0-0.75-4.75,23.75-28.5c0,0-9.692,5.279-2.25-4c4.891-6.098,18.654-12.588,42.25-51.75c0,0,5.001-5.916-6.5,6.25
	c-21.958,23.227-67.477,72.258-66,72.75"/>
<path fill="none" stroke="#00656A" stroke-width="2" stroke-linecap="round" stroke-linejoin="round" stroke-miterlimit="10" d="
	M90.327,17.828c0,0,28.94,4.851,53.186,6.615c10.859,0.79,20.776,0.961,26.73-0.198c0,0,25.5,24,27.25,24s-34.25,0.75-34.25,0.75
	s-13.25-13.25-20-23.25"/>
<path fill="none" stroke="#00656A" stroke-width="2" stroke-linecap="round" stroke-linejoin="round" stroke-miterlimit="10" d="
	M117.744,21.745c0,0,29.5,32.25,19.5,30.5"/>
<path fill="none" stroke="#00656A" stroke-width="2" stroke-linecap="round" stroke-linejoin="round" stroke-miterlimit="10" d="
	M92.994,24.495l75.5,91c0,0-6.25,2.75,63,5c0,0,0-6.75,9.25-5.25l2.244,0.5l-1.494-7.75c0,0-16.5-11.5-30.25-25.75"/>
<path fill="none" stroke="#00656A" stroke-width="2" stroke-linecap="round" stroke-linejoin="round" stroke-miterlimit="10" d="
	M190.244,48.995c0,0,12,16,25.25,25.25l-17.25,2.75c0,0-23.5-20.75-25.25-24l-49-1"/>
<path fill="none" stroke="#00656A" stroke-width="2" stroke-linecap="round" stroke-linejoin="round" stroke-miterlimit="10" d="
	M95.744,18.995c0,0,31.75,36,32,40c0,0,39.75,49,48.25,52.5l36.25,2.25l2.75-7.25c0,0-22.25-15.75-24.25-22.25l-23.25-3l-18.75-3.25
	l2.25-6.75l17.75,3.25"/>
<polyline fill="none" stroke="#00656A" stroke-width="2" stroke-linecap="round" stroke-linejoin="round" stroke-miterlimit="10" points="
	137.744,45.995 158.744,45.495 158.744,52.245 "/>
<line fill="none" stroke="#00656A" stroke-width="2" stroke-linecap="round" stroke-linejoin="round" stroke-miterlimit="10" x1="163.244" y1="48.995" x2="161.494" y2="52.495"/>
<path fill="none" stroke="#00656A" stroke-width="2" stroke-linecap="round" stroke-linejoin="round" stroke-miterlimit="10" d="
	M146.744,52.745c0,0,20.098,15.695,23.949,22.633c0.551,0.991,0.77,1.804,0.551,2.367l-0.5,1.5c0,0-2,6.25,28.25,3l1.25-5
	c0,0-24.25,0-28-0.75"/>
<polyline fill="none" stroke="#00656A" stroke-width="2" stroke-linecap="round" stroke-linejoin="round" stroke-miterlimit="10" points="
	131.244,52.995 150.244,72.495 148.744,77.995 177.994,104.245 214.994,106.495 214.744,107.995 241.494,107.995 242.988,115.745 
	212.244,113.745 "/>
<path fill="none" stroke="#00656A" stroke-width="2" stroke-linecap="round" stroke-linejoin="round" stroke-miterlimit="10" d="
	M27.66,110.828l4.333,18.667c0,0,1.333,0.666,20.667-0.667"/>
<path fill="none" stroke="#00656A" stroke-width="2" stroke-linecap="round" stroke-linejoin="round" stroke-miterlimit="10" d="
	M32.327,130.828c0,0,5,41,3.667,43c0,0,4-6,14.667-3"/>
<path fill="none" stroke="#00656A" stroke-width="2" stroke-linecap="round" stroke-linejoin="round" stroke-miterlimit="10" d="
	M35.994,173.828c0,0,2.667,24.334-1.333,26.667c0,0,0.333,3.666,5.667,3.666s19-1.666,19-1.666"/>
<path fill="none" stroke="#00656A" stroke-width="2" stroke-linecap="round" stroke-linejoin="round" stroke-miterlimit="10" d="
	M79.66,46.161c0,0,27.333-4,29.667,0"/>
<path fill="none" stroke="#00656A" stroke-width="2" stroke-linecap="round" stroke-linejoin="round" stroke-miterlimit="10" d="
	M50.66,83.494c0,0,5.107-2.379,15.667-3c19.094-1.123,51,1.667,71.667,2.333"/>
<path fill="none" stroke="#00656A" stroke-width="2" stroke-linecap="round" stroke-linejoin="round" stroke-miterlimit="10" d="
	M132.327,130.828c0,0,6.667-3.667,32.667,0l53,2c0,0,3.666,6,3.333-12"/>
<path fill="none" stroke="#00656A" stroke-width="2" stroke-linecap="round" stroke-linejoin="round" stroke-miterlimit="10" d="
	M217.994,132.828l-2.334,39.333c0,0-41-4-51.333-5.333c0,0-17.666-5.666-30,0"/>
<path fill="none" stroke="#00656A" stroke-width="2" stroke-linecap="round" stroke-linejoin="round" stroke-miterlimit="10" d="
	M165.327,113.828c0,0,2.001,15.667-0.333,17l-4.334,0.667c0,0,3.333,10,0,33.333h-1.666c0,0-3,33.667,0.333,38"/>
<path fill="none" stroke="#00656A" stroke-width="2" stroke-linecap="round" stroke-linejoin="round" stroke-miterlimit="10" d="
	M211.994,172.161c0,0-3,32,2.333,32.667c0,0,0-1.666-5,0.667s-0.333-6-0.333-6l-5,2.666l2-5.666l-9.667,8.666v-13.333
	c0,0-3.667,15.333-10.667,15.333s5.667-8,5.667-8l-9.667,1.667l-2,4.333c0,0-9.667-4.666-2-9.666l-9,9.666c0,0-4-4.333-3-12.333
	s-4.666,15-4.666,15l-6-7c0,0-4.334,14-7.667,3s7.334,19.666-10.333-2.667"/>
<linearGradient id="SVGID_1_" gradientUnits="userSpaceOnUse" x1="72.9436" y1="177.7573" x2="148.2771" y2="108.4233">
	<stop  offset="0" style="stop-color:#969696"/>
	<stop  offset="0.2077" style="stop-color:#545454"/>
	<stop  offset="0.4154" style="stop-color:#181818"/>
	<stop  offset="0.514" style="stop-color:#000000"/>
</linearGradient>
<path fill="url(#SVGID_1_)" d="M58.689,203.954c0,0-12.304-58.82,2.368-94.045c8.408-23.288,40.072-25.578,50.585-16.624
	c22.205,18.913,22.923,30.604,22.782,111.334"/>
</svg>
