<?xml version="1.0" encoding="utf-8"?>
<!-- Generator: Adobe Illustrator 16.0.0, SVG Export Plug-In . SVG Version: 6.00 Build 0)  -->
<!DOCTYPE svg PUBLIC "-//W3C//DTD SVG 1.1//EN" "http://www.w3.org/Graphics/SVG/1.1/DTD/svg11.dtd">
<svg version="1.1" id="Layer_2" xmlns="http://www.w3.org/2000/svg" xmlns:xlink="http://www.w3.org/1999/xlink" x="0px" y="0px"
	 width="242.988px" height="215.989px" viewBox="0 0 242.988 215.989" enable-background="new 0 0 242.988 215.989"
	 xml:space="preserve">
<path fill="none" stroke="#00656A" stroke-width="2" stroke-linecap="round" stroke-linejoin="round" stroke-miterlimit="10" d="
	M211.244,82.245c13.75,14.25,30.25,25.75,30.25,25.75l1.494,7.75l-2.244-0.5c-9.25-1.5-9.25,5.25-9.25,5.25c-69.25-2.25-63-5-63-5
	l-75.5-91l24.75-2.75c0,0,29.5,32.25,19.5,30.5l-6,0.75l19,19.5l-1.5,5.5l29.25,26.25l37,2.25l-0.25,1.5h26.75l1.494,7.75l-30.744-2
	l9.083,7.083c0.333,18-3.333,12-3.333,12l-53-2c-26-3.667-32.667,0-32.667,0l2,36c12.334-5.666,30,0,30,0
	c10.333,1.333,51.333,5.333,51.333,5.333l2.334-39.333l-6,39.333c0,0-3,32,2.333,32.667c0,0,0-1.666-5,0.667s-0.333-6-0.333-6
	l-5,2.666l2-5.666l-9.667,8.666v-13.333c0,0-3.667,15.333-10.667,15.333s5.667-8,5.667-8l-9.667,1.667l-2,4.333
	c0,0-9.667-4.666-2-9.666l-9,9.666c0,0-4-4.333-3-12.333s-4.666,15-4.666,15l-6-7c0,0-4.334,14-7.667,3s7.334,19.666-10.333-2.667
	l22.333,1.667c-3.333-4.333-0.333-38-0.333-38h1.666c3.333-23.333,0-33.333,0-33.333l4.334-0.667c2.334-1.333,0.333-17,0.333-17
	l-27.333-31c-20.667-0.667-52.573-3.456-71.667-2.333c-10.56,0.621-15.667,3-15.667,3l29-37.333c0,0,27.333-4,29.667,0l14.667,5.834
	l49,1c1.75,3.25,25.25,24,25.25,24l17.25-2.75c-13.25-9.25-25.25-25.25-25.25-25.25h-27l-1.75,3.5l-2.75-0.25v-6.75l-21,0.5l9,6.75
	c0,0,20.098,15.695,23.949,22.633c0.551,0.991,0.77,1.804,0.551,2.367l-0.5,1.5c0,0-2,6.25,28.25,3l1.25-5c0,0-24.25,0-28-0.75
	l-3.5-2l-17.75-3.25l-2.25,6.75l18.75,3.25l23.25,3c2,6.5,24.25,22.25,24.25,22.25l-2.75,7.25l-36.25-2.25
	c-8.5-3.5-48.25-52.5-48.25-52.5c-0.25-4-32-40-32-40l-5.417-1.167c0,0,28.94,4.851,53.186,6.615
	c10.859,0.79,20.776,0.961,26.73-0.198c0,0,25.5,24,27.25,24s-34.25,0.75-34.25,0.75s-13.25-13.25-20-23.25l-49.5-6L6.16,104.828
	c0,0-9.833-1.833,32-30.667c0,0-6.16-3.982-2-9.167c4.496-5.604,19.739-12.69,31.333-19.833l-1.667-6.5c0,0,12.333-12.5,24.5-20.833
	c0,0-19.534,24.498-40.583,47.417c-21.491,23.4-44.38,45.24-31.75,46.25l10.75-0.75c0,0-0.75-4.75,23.75-28.5
	c0,0-9.692,5.279-2.25-4c4.891-6.098,18.654-12.588,42.25-51.75c0,0,5.001-5.916-6.5,6.25c-21.958,23.227-67.477,72.258-66,72.75
	l7.667,5.333l4.333,18.667c0,0,1.333,0.666,20.667-0.667l-20.333,2c0,0,5,41,3.667,43c0,0,4-6,14.667-3l-14.667,3
	c0,0,2.667,24.334-1.333,26.667c0,0,0.333,3.666,5.667,3.666s19-1.666,19-1.666"/>
<linearGradient id="SVGID_1_" gradientUnits="userSpaceOnUse" x1="72.9436" y1="177.7573" x2="148.2771" y2="108.4233">
	<stop  offset="0" style="stop-color:#969696"/>
	<stop  offset="0.2077" style="stop-color:#545454"/>
	<stop  offset="0.4154" style="stop-color:#181818"/>
	<stop  offset="0.514" style="stop-color:#000000"/>
</linearGradient>
<path fill="url(#SVGID_1_)" d="M58.689,203.954c0,0-12.304-58.82,2.368-94.045c8.408-23.288,40.072-25.578,50.585-16.624
	c22.205,18.913,22.923,30.604,22.782,111.334"/>
</svg>
